<svg width="512" height="512" viewBox="0 0 512 512" fill="none" xmlns="http://www.w3.org/2000/svg">
<path d="M0.0405256 195.585C64.4492 195.585 128.858 195.585 193.28 195.628C194.968 195.628 195.684 195.188 196.238 193.356C200.737 178.405 205.397 163.496 210.003 148.588C214.434 134.262 218.879 119.935 223.309 105.595C227.929 90.6862 232.522 75.7635 237.156 60.855C241.708 46.2021 246.314 31.5634 250.88 16.9105C252.461 11.8416 253.974 6.73012 255.527 1.66123C255.676 1.19268 255.959 0.780921 256.365 0C257.851 4.65713 259.256 8.93089 260.593 13.2331C266.064 30.7967 271.535 48.3745 276.979 65.9523C281.639 81.0312 286.232 96.1384 290.879 111.231C295.472 126.154 300.105 141.063 304.712 155.971C308.467 168.139 312.263 180.293 315.924 192.49C316.64 194.861 317.666 195.685 320.152 195.67C383.115 195.585 446.078 195.599 509.028 195.599C509.987 195.599 510.96 195.599 511.919 195.599C511.946 195.798 511.973 195.983 512 196.181C507.65 199.532 503.314 202.912 498.964 206.248C489.09 213.802 479.201 221.327 469.327 228.881C460.397 235.71 451.468 242.54 442.539 249.369C429.558 259.294 416.589 269.247 403.581 279.144C391.531 288.316 379.427 297.417 367.351 306.575C363.555 309.458 359.772 312.368 355.977 315.251C354.72 316.202 354.518 317.21 355.031 318.814C358.948 331.025 362.798 343.25 366.581 355.489C371.093 370.071 375.523 384.682 380.008 399.263C384.574 414.101 389.194 428.924 393.773 443.748C398.393 458.656 402.986 473.579 407.606 488.487C409.876 495.814 412.199 503.126 414.482 510.452C414.631 510.949 414.644 511.489 414.725 512C414.387 512 414.036 512 413.698 512C413.509 511.716 413.374 511.347 413.131 511.148C407.349 506.818 401.514 502.572 395.759 498.199C382.683 488.26 369.647 478.25 356.598 468.283C346.588 460.644 336.538 453.033 326.542 445.366C314.857 436.393 303.226 427.334 291.514 418.403C279.762 409.43 267.942 400.57 256.149 391.639C246.382 399.022 236.575 406.349 226.835 413.803C213.246 424.21 199.737 434.731 186.147 445.125C174.111 454.325 161.994 463.384 149.931 472.556C136.922 482.453 123.954 492.378 110.986 502.345C106.893 505.497 102.881 508.777 98.8284 512C98.4906 512 98.1394 512 97.8017 512C97.9233 511.404 98.0043 510.793 98.1664 510.211C101.206 500.201 104.232 490.177 107.312 480.195C112.242 464.208 117.24 448.22 122.185 432.233C126.44 418.488 130.641 404.73 134.883 390.986C139.638 375.58 144.42 360.175 149.188 344.769C151.89 336.023 154.537 327.263 157.361 318.559C157.861 317.04 157.59 316.372 156.442 315.549C154.024 313.817 151.701 311.957 149.323 310.153C139.908 302.983 130.492 295.827 121.077 288.657C111.202 281.117 101.341 273.564 91.4527 266.024C82.0508 258.854 72.6218 251.698 63.2199 244.513C53.3452 236.974 43.4704 229.434 33.6092 221.881C25.8958 215.988 18.223 210.039 10.4826 204.175C7.05145 201.577 3.49871 199.149 0 196.636C0.0405256 196.295 0.0405256 195.94 0.0405256 195.585Z" fill="#232323" fill-opacity="0.9"/>
</svg>
