<svg width="1310" height="241" viewBox="0 0 1310 241" fill="none" xmlns="http://www.w3.org/2000/svg">
<g clip-path="url(#clip0)">
<path d="M0.0190755 92.0625C30.3364 92.0625 60.6538 92.0625 90.9775 92.0826C91.7723 92.0826 92.1093 91.8754 92.37 91.0132C94.4874 83.9757 96.6811 76.9583 98.8493 69.9408C100.935 63.1973 103.027 56.4539 105.112 49.7037C107.287 42.6863 109.449 35.6621 111.63 28.6446C113.773 21.7475 115.941 14.857 118.09 7.95982C118.834 5.57388 119.546 3.16789 120.277 0.781947C120.347 0.561398 120.481 0.367582 120.672 0C121.371 2.19212 122.032 4.2038 122.662 6.22884C125.237 14.4961 127.812 22.77 130.375 31.044C132.568 38.1416 134.73 45.2527 136.918 52.357C139.08 59.3812 141.261 66.3986 143.429 73.4161C145.196 79.1437 146.983 84.8646 148.706 90.6056C149.043 91.7217 149.527 92.1093 150.697 92.1026C180.334 92.0625 209.971 92.0692 239.601 92.0692C240.053 92.0692 240.51 92.0692 240.962 92.0692C240.975 92.1628 240.987 92.2497 241 92.3432C238.953 93.9205 236.911 95.5111 234.864 97.0817C230.216 100.637 225.562 104.179 220.913 107.735C216.711 110.95 212.508 114.164 208.305 117.379C202.194 122.051 196.09 126.736 189.967 131.394C184.295 135.711 178.598 139.995 172.913 144.306C171.126 145.663 169.346 147.033 167.559 148.389C166.968 148.837 166.873 149.312 167.114 150.067C168.958 155.815 170.77 161.569 172.551 167.33C174.674 174.194 176.76 181.071 178.871 187.935C181.02 194.919 183.195 201.896 185.35 208.873C187.525 215.891 189.687 222.915 191.861 229.932C192.93 233.381 194.023 236.823 195.098 240.272C195.168 240.505 195.174 240.759 195.212 241C195.053 241 194.888 241 194.729 241C194.64 240.866 194.577 240.693 194.462 240.599C191.741 238.561 188.994 236.562 186.285 234.504C180.13 229.826 173.994 225.114 167.852 220.422C163.14 216.826 158.409 213.244 153.704 209.635C148.204 205.411 142.729 201.147 137.217 196.944C131.685 192.72 126.121 188.549 120.57 184.346C115.973 187.821 111.356 191.27 106.772 194.778C100.375 199.677 94.0168 204.629 87.6202 209.522C81.9548 213.852 76.2512 218.116 70.573 222.434C64.4498 227.092 58.3456 231.764 52.2415 236.455C50.3148 237.939 48.4264 239.483 46.5188 241C46.3599 241 46.1945 241 46.0356 241C46.0928 240.719 46.1309 240.432 46.2072 240.158C47.6379 235.446 49.0622 230.728 50.512 226.029C52.8328 218.504 55.1855 210.979 57.5127 203.453C59.5156 196.984 61.4931 190.508 63.4897 184.038C65.7279 176.787 67.9788 169.535 70.2233 162.284C71.495 158.167 72.7413 154.044 74.0702 149.947C74.3055 149.232 74.1783 148.917 73.6378 148.53C72.4997 147.714 71.406 146.839 70.2869 145.99C65.855 142.615 61.4231 139.247 56.9913 135.872C52.3432 132.323 47.7015 128.767 43.0471 125.218C38.6216 121.843 34.1833 118.475 29.7578 115.093C25.1097 111.544 20.4617 107.996 15.82 104.44C12.1893 101.666 8.57762 98.8661 4.9342 96.1059C3.31914 94.8829 1.64685 93.74 0 92.5571C0.0190755 92.3967 0.0190755 92.2296 0.0190755 92.0625Z" fill="#232323" fill-opacity="0.9"/>
<path d="M433.66 149.91V163H362.617V152.647L411.645 92.79H363.45V79.7H432.113V90.053L383.085 149.91H433.66Z" fill="black"/>
<path d="M515.307 150.029V163H452.832V79.7H513.641V92.671H468.302V114.329H508.524V127.062H468.302V150.029H515.307Z" fill="black"/>
<path d="M576.117 164.19C567.628 164.19 559.972 162.365 553.15 158.716C546.327 154.987 540.972 149.87 537.085 143.365C533.197 136.78 531.254 129.442 531.254 121.35C531.254 113.258 533.197 105.959 537.085 99.454C540.972 92.8693 546.327 87.7523 553.15 84.103C559.972 80.3743 567.628 78.51 576.117 78.51C584.605 78.51 592.261 80.3743 599.084 84.103C605.906 87.7523 611.261 92.8297 615.149 99.335C619.036 105.84 620.98 113.179 620.98 121.35C620.98 129.521 619.036 136.86 615.149 143.365C611.261 149.87 605.906 154.987 599.084 158.716C592.261 162.365 584.605 164.19 576.117 164.19ZM576.117 150.624C581.67 150.624 586.668 149.394 591.111 146.935C595.553 144.396 599.044 140.906 601.583 136.463C604.121 131.941 605.391 126.903 605.391 121.35C605.391 115.797 604.121 110.799 601.583 106.356C599.044 101.834 595.553 98.3433 591.111 95.884C586.668 93.3453 581.67 92.076 576.117 92.076C570.563 92.076 565.565 93.3453 561.123 95.884C556.68 98.3433 553.189 101.834 550.651 106.356C548.112 110.799 546.843 115.797 546.843 121.35C546.843 126.903 548.112 131.941 550.651 136.463C553.189 140.906 556.68 144.396 561.123 146.935C565.565 149.394 570.563 150.624 576.117 150.624Z" fill="black"/>
<path d="M716.395 79.7V163H703.662L657.728 106.594V163H642.377V79.7H655.11L701.044 136.106V79.7H716.395Z" fill="black"/>
<path d="M903.341 79.7L875.733 163H859.311L838.724 101.358L817.78 163H801.239L773.631 79.7H789.696L810.402 143.008L831.941 79.7H846.221L867.284 143.365L888.585 79.7H903.341Z" fill="black"/>
<path d="M972.297 143.722H930.647L922.436 163H906.49L943.975 79.7H959.207L996.811 163H980.627L972.297 143.722ZM967.18 131.584L951.472 95.17L935.883 131.584H967.18Z" fill="black"/>
<path d="M1012.4 79.7H1027.87V149.91H1071.43V163H1012.4V79.7Z" fill="black"/>
<path d="M1088.64 79.7H1104.11V149.91H1147.67V163H1088.64V79.7Z" fill="black"/>
<path d="M1227.35 150.029V163H1164.88V79.7H1225.69V92.671H1180.35V114.329H1220.57V127.062H1180.35V150.029H1227.35Z" fill="black"/>
<path d="M1266.5 92.79H1238.89V79.7H1309.58V92.79H1281.97V163H1266.5V92.79Z" fill="black"/>
</g>
<defs>
<clipPath id="clip0">
<rect width="1309.89" height="241" fill="white"/>
</clipPath>
</defs>
</svg>
